<svg xmlns="http://www.w3.org/2000/svg" viewBox="0 0 800 800" width="800" height="800">
  <path fill="#E8F2FF" d="M587.947 527.768c4.374 54.378 4.374 79.053 4.374 112.232H430.009c0-14.086.72-27.218 1.47-40.686l.515-9.263c1.692-32.086 3.178-60.244-6.095-81.166-10.778-24.32-34.556-32.085-74.206-32.085H195v-98.158h167.36c30.593 0 59.221-1.028 78.142-12.328 21.857-13.036 31.621-35.612 31.621-69.441 0-30.06-11.797-52.127-31.621-65.676-17.402-11.814-37.227-17.721-82.069-17.721H195V115h202.252c71.173 0 125.727 16.181 160.543 46.24 35.888 30.572 53.296 73.39 53.296 131.736 0 85.831-50.96 142.436-135.194 158.617v3.028c56.96 8.277 99.641 41.595 111.05 73.147ZM195 640v-88.106h155.09c29.078 0 36.862 17.21 36.862 36.695V640H195Z"/>
</svg>
