<svg version="1.1" viewBox="0.0 0.0 960.0 720.0" fill="none" stroke="none" stroke-linecap="square" stroke-miterlimit="10" xmlns:xlink="http://www.w3.org/1999/xlink" xmlns="http://www.w3.org/2000/svg"><clipPath id="p.0"><path d="m0 0l960.0 0l0 720.0l-960.0 0l0 -720.0z" clip-rule="nonzero"/></clipPath><g clip-path="url(#p.0)"><path fill="#000000" fill-opacity="0.0" d="m0 0l960.0 0l0 720.0l-960.0 0z" fill-rule="evenodd"/><path fill="#f3f3f3" d="m122.59318 257.84253l204.31497 0l0 204.31494l-204.31497 0z" fill-rule="evenodd"/><path stroke="#000000" stroke-width="2.0" stroke-linejoin="round" stroke-linecap="butt" d="m122.59318 257.84253l204.31497 0l0 204.31494l-204.31497 0z" fill-rule="evenodd"/><path fill="#f3f3f3" d="m587.1361 267.90564l0 0c2.9759521 -25.505096 19.63733 -47.318985 42.914185 -56.185226c23.276855 -8.866226 49.086853 -3.2298737 66.477905 14.5173645l0 0c10.874878 -12.539749 26.679443 -19.120026 42.63318 -17.750443c15.953735 1.3695831 30.1828 10.528183 38.383118 24.70549l0 0c9.46106 -11.469208 23.82611 -17.169586 37.99768 -15.078339c14.17157 2.0912476 26.143982 11.678162 31.668884 25.35881l0 0c14.658081 -10.998062 33.935303 -12.3467865 49.490356 -3.4626007c15.555054 8.884186 24.594116 26.405624 23.205872 44.98265l0 0c12.742126 7.3568726 21.678162 20.18509 24.49939 35.17032c2.821289 14.9852295 -0.74902344 30.65741 -9.788452 42.967377l0 0c8.901489 21.80307 5.916748 47.137695 -7.840393 66.54944c-13.75708 19.411743 -36.219727 29.984222 -59.005188 27.771973c-5.209778 20.147308 -20.419556 36.02249 -39.766968 41.50656c-19.347351 5.48407 -39.811157 -0.2793274 -53.503723 -15.068726l0 0c-13.026733 22.430237 -37.10669 35.30435 -61.836548 33.06021c-24.729858 -2.2441406 -45.67627 -19.204193 -53.78955 -43.552795l0 0c-18.983398 6.2462463 -39.398315 4.302704 -56.639587 -5.392212c-17.241272 -9.694885 -29.856567 -26.324493 -35.000122 -46.13748l0 0c-17.263916 -2.1418762 -31.182983 -15.285309 -34.849243 -32.90732c-3.6661987 -17.621979 3.7008667 -35.971222 18.444946 -45.94104l0 0c-12.635193 -12.950928 -15.682983 -33.13446 -7.554016 -50.025665c8.128906 -16.891205 25.592468 -26.662506 43.28412 -24.218536z" fill-rule="evenodd"/><path fill="#000000" fill-opacity="0.0" d="m550.8365 343.01895l0 0c5.9625854 6.1115723 13.614319 10.122772 21.927856 11.494965m-5.527588 67.354065c3.6106567 0.447937 7.272156 0.39874268 10.889893 -0.14639282m80.74518 51.673706c-1.4949341 -4.48645 -2.522461 -9.137878 -3.0649414 -13.8750305m118.695496 24.36795l0 0c2.374939 -4.0893555 4.3345947 -8.419586 5.8462524 -12.9184265m87.4209 -13.518463c5.54657 -21.44992 -1.1819458 -44.046417 -17.295471 -58.083588m84.140076 -36.235657c-4.8237915 6.569092 -11.015869 11.917389 -18.09076 15.62558m3.3831787 -93.764496l0 0c-0.23034668 3.0828857 -0.7456665 6.1416016 -1.5387573 9.133789m-71.15637 -50.65262l0 0c-3.656433 2.7434692 -6.922058 6.0147095 -9.695129 9.711868m-59.97168 -19.994003l0 0c-2.2722778 2.7545319 -4.2129517 5.785431 -5.7773438 9.022888m-75.24017 -15.977951l0 0c3.6799316 3.7552948 6.8984375 7.9720306 9.584778 12.557541m-118.97577 29.110962l0 0c-0.41015625 3.5152588 -0.55322266 7.052826 -0.4277954 10.579529" fill-rule="evenodd"/><path stroke="#000000" stroke-width="2.0" stroke-linejoin="round" stroke-linecap="butt" d="m587.1361 267.90564l0 0c2.9759521 -25.505096 19.63733 -47.318985 42.914185 -56.185226c23.276855 -8.866226 49.086853 -3.2298737 66.477905 14.5173645l0 0c10.874878 -12.539749 26.679443 -19.120026 42.63318 -17.750443c15.953735 1.3695831 30.1828 10.528183 38.383118 24.70549l0 0c9.46106 -11.469208 23.82611 -17.169586 37.99768 -15.078339c14.17157 2.0912476 26.143982 11.678162 31.668884 25.35881l0 0c14.658081 -10.998062 33.935303 -12.3467865 49.490356 -3.4626007c15.555054 8.884186 24.594116 26.405624 23.205872 44.98265l0 0c12.742126 7.3568726 21.678162 20.18509 24.49939 35.17032c2.821289 14.9852295 -0.74902344 30.65741 -9.788452 42.967377l0 0c8.901489 21.80307 5.916748 47.137695 -7.840393 66.54944c-13.75708 19.411743 -36.219727 29.984222 -59.005188 27.771973c-5.209778 20.147308 -20.419556 36.02249 -39.766968 41.50656c-19.347351 5.48407 -39.811157 -0.2793274 -53.503723 -15.068726l0 0c-13.026733 22.430237 -37.10669 35.30435 -61.836548 33.06021c-24.729858 -2.2441406 -45.67627 -19.204193 -53.78955 -43.552795l0 0c-18.983398 6.2462463 -39.398315 4.302704 -56.639587 -5.392212c-17.241272 -9.694885 -29.856567 -26.324493 -35.000122 -46.13748l0 0c-17.263916 -2.1418762 -31.182983 -15.285309 -34.849243 -32.90732c-3.6661987 -17.621979 3.7008667 -35.971222 18.444946 -45.94104l0 0c-12.635193 -12.950928 -15.682983 -33.13446 -7.554016 -50.025665c8.128906 -16.891205 25.592468 -26.662506 43.28412 -24.218536z" fill-rule="evenodd"/><path stroke="#000000" stroke-width="2.0" stroke-linejoin="round" stroke-linecap="butt" d="m550.8365 343.01895l0 0c5.9625854 6.1115723 13.614319 10.122772 21.927856 11.494965m-5.527588 67.354065c3.6106567 0.447937 7.272156 0.39874268 10.889893 -0.14639282m80.74518 51.673706c-1.4949341 -4.48645 -2.522461 -9.137878 -3.0649414 -13.8750305m118.695496 24.36795l0 0c2.374939 -4.0893555 4.3345947 -8.419586 5.8462524 -12.9184265m87.4209 -13.518463c5.54657 -21.44992 -1.1819458 -44.046417 -17.295471 -58.083588m84.140076 -36.235657c-4.8237915 6.569092 -11.015869 11.917389 -18.09076 15.62558m3.3831787 -93.764496l0 0c-0.23034668 3.0828857 -0.7456665 6.1416016 -1.5387573 9.133789m-71.15637 -50.65262l0 0c-3.656433 2.7434692 -6.922058 6.0147095 -9.695129 9.711868m-59.97168 -19.994003l0 0c-2.2722778 2.7545319 -4.2129517 5.785431 -5.7773438 9.022888m-75.24017 -15.977951l0 0c3.6799316 3.7552948 6.8984375 7.9720306 9.584778 12.557541m-118.97577 29.110962l0 0c-0.41015625 3.5152588 -0.55322266 7.052826 -0.4277954 10.579529" fill-rule="evenodd"/><path fill="#ffffff" d="m666.86615 338.48795l121.453186 0l0 66.81711c-60.723328 0 -60.723328 25.707855 -121.453186 12.853912zm10.006226 0l0 -8.662415l120.62366 0l0 67.23624c-4.585083 0 -9.176697 0.46572876 -9.176697 0.46572876l0 -59.03955zm9.4053955 -8.662415l0 -8.45285l121.6687 0l0 67.02667c-5.2252197 0 -10.450439 0.3493042 -10.450439 0.3493042l0 -58.923126z" fill-rule="evenodd"/><path fill="#000000" fill-opacity="0.0" d="m666.86615 338.48795l121.453186 0l0 66.81711c-60.723328 0 -60.723328 25.707855 -121.453186 12.853912zm10.006226 0l0 -8.662415l120.62366 0l0 67.23624c-4.585083 0 -9.176697 0.46572876 -9.176697 0.46572876m-102.041565 -67.701965l0 -8.45285l121.6687 0l0 67.02667c-5.2252197 0 -10.450439 0.3493042 -10.450439 0.3493042" fill-rule="evenodd"/><path fill="#000000" fill-opacity="0.0" d="m666.86615 418.15897c60.72986 12.853943 60.72986 -12.853912 121.453186 -12.853912l0 -7.7775574c0 0 4.591614 -0.46572876 9.176697 -0.46572876l0 -8.31311c0 0 5.2252197 -0.3493042 10.450439 -0.3493042l0 -67.02667l-121.6687 0l0 8.45285l-9.4053955 0l0 8.662415l-10.006226 0z" fill-rule="evenodd"/><path stroke="#000000" stroke-width="2.0" stroke-linejoin="round" stroke-linecap="butt" d="m666.86615 338.48795l121.453186 0l0 66.81711c-60.723328 0 -60.723328 25.707855 -121.453186 12.853912zm10.006226 0l0 -8.662415l120.62366 0l0 67.23624c-4.585083 0 -9.176697 0.46572876 -9.176697 0.46572876m-102.041565 -67.701965l0 -8.45285l121.6687 0l0 67.02667c-5.2252197 0 -10.450439 0.3493042 -10.450439 0.3493042" fill-rule="evenodd"/><path fill="#000000" fill-opacity="0.0" d="m667.44354 371.66928l-372.15744 0" fill-rule="evenodd"/><path stroke="#000000" stroke-width="3.0" stroke-linejoin="round" stroke-linecap="butt" d="m667.44354 371.66928l-361.8762 0" fill-rule="evenodd"/><path fill="#000000" stroke="#000000" stroke-width="3.0" stroke-linecap="butt" d="m305.56735 371.66928l3.3737488 -3.3737488l-9.269318 3.3737488l9.269318 3.3737488z" fill-rule="evenodd"/><path fill="#000000" fill-opacity="0.0" d="m579.9278 257.84253l314.96063 0l0 51.716522l-314.96063 0z" fill-rule="evenodd"/><path fill="#000000" d="m705.96606 292.70813q-2.578125 0 -4.625 -1.171875q-2.03125 -1.171875 -3.21875 -3.390625q-1.171875 -2.234375 -1.171875 -5.390625q0 -3.15625 1.1875 -5.390625q1.1875 -2.234375 3.21875 -3.40625q2.046875 -1.171875 4.609375 -1.171875q1.65625 0 3.078125 0.46875q1.421875 0.453125 2.53125 1.34375q1.109375 0.890625 1.8125 2.171875q0.703125 1.28125 0.921875 2.90625l-4.03125 0q-0.125 -0.796875 -0.5 -1.40625q-0.375 -0.625 -0.921875 -1.0625q-0.546875 -0.4375 -1.265625 -0.65625q-0.71875 -0.234375 -1.546875 -0.234375q-1.515625 0 -2.65625 0.765625q-1.140625 0.75 -1.765625 2.1875q-0.625 1.4375 -0.625 3.484375q0 2.09375 0.625 3.53125q0.640625 1.4375 1.765625 2.171875q1.140625 0.71875 2.640625 0.71875q0.828125 0 1.53125 -0.21875q0.71875 -0.234375 1.28125 -0.671875q0.5625 -0.4375 0.9375 -1.0625q0.375 -0.625 0.515625 -1.40625l4.03125 0q-0.15625 1.34375 -0.8125 2.578125q-0.640625 1.234375 -1.71875 2.21875q-1.0625 0.96875 -2.53125 1.53125q-1.46875 0.5625 -3.296875 0.5625zm15.218872 0.015625q-1.390625 0 -2.5 -0.484375q-1.09375 -0.484375 -1.71875 -1.453125q-0.625 -0.96875 -0.625 -2.421875q0 -1.203125 0.4375 -2.015625q0.453125 -0.828125 1.21875 -1.3125q0.78125 -0.5 1.765625 -0.765625q0.984375 -0.265625 2.0625 -0.359375q1.265625 -0.140625 2.03125 -0.25q0.78125 -0.109375 1.140625 -0.34375q0.359375 -0.25 0.359375 -0.71875l0 -0.0625q0 -0.625 -0.265625 -1.046875q-0.25 -0.4375 -0.765625 -0.65625q-0.5 -0.234375 -1.25 -0.234375q-0.75 0 -1.3125 0.234375q-0.5625 0.21875 -0.921875 0.59375q-0.34375 0.375 -0.515625 0.84375l-3.578125 -0.59375q0.375 -1.265625 1.25 -2.140625q0.875 -0.890625 2.171875 -1.359375q1.296875 -0.46875 2.90625 -0.46875q1.1875 0 2.296875 0.28125q1.109375 0.28125 1.984375 0.875q0.875 0.578125 1.390625 1.515625q0.515625 0.9375 0.515625 2.265625l0 9.796875l-3.703125 0l0 -2.015625l-0.125 0q-0.359375 0.671875 -0.953125 1.1875q-0.578125 0.515625 -1.40625 0.8125q-0.8125 0.296875 -1.890625 0.296875zm1.09375 -2.734375q0.921875 0 1.625 -0.359375q0.703125 -0.375 1.09375 -1.0q0.390625 -0.625 0.390625 -1.390625l0 -1.578125q-0.171875 0.125 -0.53125 0.234375q-0.34375 0.109375 -0.78125 0.1875q-0.421875 0.078125 -0.84375 0.140625q-0.421875 0.0625 -0.734375 0.09375q-0.71875 0.109375 -1.265625 0.34375q-0.546875 0.234375 -0.84375 0.625q-0.296875 0.375 -0.296875 0.984375q0 0.546875 0.28125 0.9375q0.28125 0.390625 0.765625 0.59375q0.5 0.1875 1.140625 0.1875zm16.819458 2.734375q-2.203125 0 -3.796875 -0.9375q-1.59375 -0.9375 -2.46875 -2.625q-0.859375 -1.6875 -0.859375 -3.921875q0 -2.265625 0.859375 -3.953125q0.875 -1.6875 2.46875 -2.625q1.59375 -0.953125 3.796875 -0.953125q1.296875 0 2.390625 0.34375q1.09375 0.328125 1.9375 0.953125q0.84375 0.625 1.390625 1.53125q0.546875 0.890625 0.75 2.015625l-3.625 0.671875q-0.125 -0.5625 -0.375 -1.015625q-0.234375 -0.453125 -0.59375 -0.765625q-0.34375 -0.328125 -0.8125 -0.484375q-0.46875 -0.171875 -1.015625 -0.171875q-1.046875 0 -1.765625 0.5625q-0.703125 0.546875 -1.0625 1.5625q-0.359375 1.0 -0.359375 2.3125q0 1.296875 0.359375 2.296875q0.359375 0.984375 1.0625 1.5625q0.71875 0.578125 1.765625 0.578125q0.546875 0 1.015625 -0.171875q0.46875 -0.1875 0.828125 -0.515625q0.375 -0.328125 0.625 -0.796875q0.25 -0.46875 0.34375 -1.0625l3.640625 0.671875q-0.21875 1.15625 -0.765625 2.0625q-0.546875 0.90625 -1.390625 1.5625q-0.84375 0.640625 -1.953125 0.984375q-1.09375 0.328125 -2.390625 0.328125zm13.090271 -8.703125l0 8.421875l-3.90625 0l0 -19.390625l3.828125 0l0 8.46875l-0.3125 0q0.5625 -1.828125 1.71875 -2.8125q1.171875 -1.0 3.03125 -1.0q1.5 0 2.625 0.65625q1.125 0.65625 1.734375 1.890625q0.625 1.234375 0.625 2.9375l0 9.25l-3.890625 0l0 -8.578125q0 -1.359375 -0.703125 -2.125q-0.703125 -0.765625 -1.9375 -0.765625q-0.8125 0 -1.46875 0.359375q-0.640625 0.359375 -1.0 1.046875q-0.34375 0.671875 -0.34375 1.640625zm19.251282 8.703125q-2.21875 0 -3.84375 -0.90625q-1.609375 -0.90625 -2.484375 -2.578125q-0.859375 -1.6875 -0.859375 -4.0q0 -2.25 0.859375 -3.9375q0.859375 -1.6875 2.4375 -2.640625q1.578125 -0.953125 3.703125 -0.953125q1.421875 0 2.65625 0.453125q1.25 0.453125 2.1875 1.375q0.9375 0.921875 1.453125 2.296875q0.53125 1.375 0.53125 3.25l0 1.09375l-12.21875 0l0 -2.4375l10.3125 0l-1.828125 0.640625q0 -1.125 -0.34375 -1.96875q-0.34375 -0.84375 -1.03125 -1.296875q-0.6875 -0.46875 -1.703125 -0.46875q-1.0 0 -1.703125 0.46875q-0.703125 0.46875 -1.078125 1.28125q-0.359375 0.796875 -0.359375 1.828125l0 1.71875q0 1.265625 0.421875 2.125q0.421875 0.859375 1.171875 1.296875q0.765625 0.421875 1.78125 0.421875q0.703125 0 1.25 -0.1875q0.5625 -0.203125 0.953125 -0.578125q0.40625 -0.390625 0.609375 -0.953125l3.546875 0.671875q-0.359375 1.1875 -1.234375 2.09375q-0.859375 0.90625 -2.171875 1.40625q-1.3125 0.484375 -3.015625 0.484375z" fill-rule="nonzero"/><path fill="#000000" fill-opacity="0.0" d="m67.27034 269.65616l314.96063 0l0 51.716553l-314.96063 0z" fill-rule="evenodd"/><path fill="#000000" d="m172.42694 304.25616l0 -19.390625l7.703125 0q2.125 0 3.546875 0.640625q1.4375 0.640625 2.140625 1.765625q0.71875 1.125 0.71875 2.578125q0 1.140625 -0.46875 2.0q-0.453125 0.84375 -1.25 1.390625q-0.78125 0.53125 -1.78125 0.765625l0 0.203125q1.09375 0.03125 2.0625 0.625q0.96875 0.578125 1.578125 1.609375q0.609375 1.03125 0.609375 2.46875q0 1.53125 -0.765625 2.75q-0.75 1.203125 -2.234375 1.90625q-1.46875 0.6875 -3.671875 0.6875l-8.1875 0zm3.984375 -3.265625l3.421875 0q1.75 0 2.546875 -0.671875q0.8125 -0.6875 0.8125 -1.78125q0 -0.828125 -0.390625 -1.453125q-0.390625 -0.640625 -1.125 -1.0q-0.734375 -0.359375 -1.734375 -0.359375l-3.53125 0l0 5.265625zm0 -7.984375l3.125 0q0.84375 0 1.515625 -0.296875q0.6875 -0.3125 1.0625 -0.875q0.390625 -0.5625 0.390625 -1.34375q0 -1.0625 -0.75 -1.71875q-0.75 -0.671875 -2.140625 -0.671875l-3.203125 0l0 4.90625zm13.573837 11.25l0 -14.546875l3.765625 0l0 2.53125l0.15625 0q0.40625 -1.34375 1.34375 -2.03125q0.953125 -0.703125 2.171875 -0.703125q0.296875 0 0.640625 0.03125q0.34375 0.03125 0.625 0.109375l0 3.484375q-0.265625 -0.09375 -0.765625 -0.140625q-0.484375 -0.0625 -0.921875 -0.0625q-0.890625 0 -1.609375 0.390625q-0.71875 0.375 -1.109375 1.0625q-0.390625 0.6875 -0.390625 1.59375l0 8.28125l-3.90625 0zm16.704071 0.28125q-2.1875 0 -3.796875 -0.9375q-1.59375 -0.9375 -2.46875 -2.625q-0.859375 -1.6875 -0.859375 -3.921875q0 -2.265625 0.859375 -3.953125q0.875 -1.6875 2.46875 -2.625q1.609375 -0.953125 3.796875 -0.953125q2.203125 0 3.796875 0.953125q1.59375 0.9375 2.453125 2.625q0.875 1.6875 0.875 3.953125q0 2.234375 -0.875 3.921875q-0.859375 1.6875 -2.453125 2.625q-1.59375 0.9375 -3.796875 0.9375zm0 -3.0625q1.046875 0 1.75 -0.578125q0.703125 -0.578125 1.046875 -1.59375q0.359375 -1.015625 0.359375 -2.265625q0 -1.296875 -0.359375 -2.296875q-0.34375 -1.0 -1.046875 -1.5625q-0.703125 -0.578125 -1.75 -0.578125q-1.046875 0 -1.75 0.578125q-0.6875 0.5625 -1.046875 1.5625q-0.34375 1.0 -0.34375 2.296875q0 1.25 0.34375 2.265625q0.359375 1.015625 1.046875 1.59375q0.703125 0.578125 1.75 0.578125zm12.514465 2.78125l-4.296875 -14.546875l4.09375 0l1.265625 5.375q0.328125 1.4375 0.703125 3.140625q0.375 1.703125 0.6875 3.75l-0.4375 0q0.328125 -2.0 0.734375 -3.703125q0.40625 -1.703125 0.765625 -3.1875l1.328125 -5.375l3.59375 0l1.28125 5.375q0.34375 1.46875 0.734375 3.171875q0.40625 1.6875 0.765625 3.71875l-0.453125 0q0.3125 -2.015625 0.671875 -3.703125q0.359375 -1.703125 0.703125 -3.1875l1.265625 -5.375l4.140625 0l-4.3125 14.546875l-3.96875 0l-1.609375 -5.609375q-0.234375 -0.84375 -0.46875 -1.859375q-0.234375 -1.03125 -0.46875 -2.09375q-0.21875 -1.0625 -0.453125 -1.984375l0.6875 0q-0.21875 0.921875 -0.453125 1.984375q-0.21875 1.0625 -0.453125 2.09375q-0.234375 1.03125 -0.46875 1.859375l-1.609375 5.609375l-3.96875 0zm25.394775 0.28125q-1.75 0 -3.109375 -0.5q-1.34375 -0.5 -2.203125 -1.453125q-0.859375 -0.953125 -1.109375 -2.3125l3.625 -0.625q0.296875 1.015625 1.0 1.53125q0.71875 0.5 1.921875 0.5q1.109375 0 1.75 -0.421875q0.65625 -0.421875 0.65625 -1.078125q0 -0.5625 -0.46875 -0.921875q-0.453125 -0.375 -1.40625 -0.578125l-2.515625 -0.515625q-2.109375 -0.421875 -3.15625 -1.453125q-1.03125 -1.046875 -1.03125 -2.671875q0 -1.40625 0.765625 -2.40625q0.765625 -1.015625 2.125 -1.5625q1.375 -0.546875 3.234375 -0.546875q1.71875 0 2.96875 0.484375q1.265625 0.46875 2.046875 1.34375q0.78125 0.859375 1.046875 2.046875l-3.46875 0.609375q-0.21875 -0.734375 -0.859375 -1.203125q-0.625 -0.484375 -1.6875 -0.484375q-0.96875 0 -1.625 0.40625q-0.640625 0.40625 -0.640625 1.0625q0 0.5625 0.421875 0.9375q0.421875 0.375 1.453125 0.59375l2.609375 0.515625q2.109375 0.4375 3.140625 1.40625q1.03125 0.96875 1.03125 2.53125q0 1.421875 -0.84375 2.5q-0.828125 1.078125 -2.296875 1.671875q-1.453125 0.59375 -3.375 0.59375zm15.725967 0q-2.21875 0 -3.84375 -0.90625q-1.6093903 -0.90625 -2.4843903 -2.578125q-0.859375 -1.6875 -0.859375 -4.0q0 -2.25 0.859375 -3.9375q0.859375 -1.6875 2.4375153 -2.640625q1.578125 -0.953125 3.703125 -0.953125q1.421875 0 2.65625 0.453125q1.25 0.453125 2.1875 1.375q0.9375 0.921875 1.453125 2.296875q0.53125 1.375 0.53125 3.25l0 1.09375l-12.218765 0l0 -2.4375l10.312515 0l-1.828125 0.640625q0 -1.125 -0.34375 -1.96875q-0.34375 -0.84375 -1.03125 -1.296875q-0.6875 -0.46875 -1.703125 -0.46875q-1.0 0 -1.703125 0.46875q-0.703125 0.46875 -1.078125 1.28125q-0.359375 0.796875 -0.359375 1.828125l0 1.71875q0 1.265625 0.421875 2.125q0.421875 0.859375 1.171875 1.296875q0.765625 0.421875 1.78125 0.421875q0.703125 0 1.25 -0.1875q0.5625 -0.203125 0.953125 -0.578125q0.40625 -0.390625 0.609375 -0.953125l3.546875 0.671875q-0.359375 1.1875 -1.234375 2.09375q-0.859375 0.90625 -2.171875 1.40625q-1.3125 0.484375 -3.015625 0.484375zm9.316711 -0.28125l0 -14.546875l3.765625 0l0 2.53125l0.15625 0q0.40625 -1.34375 1.34375 -2.03125q0.953125 -0.703125 2.171875 -0.703125q0.296875 0 0.640625 0.03125q0.34375 0.03125 0.625 0.109375l0 3.484375q-0.265625 -0.09375 -0.765625 -0.140625q-0.484375 -0.0625 -0.921875 -0.0625q-0.890625 0 -1.609375 0.390625q-0.71875 0.375 -1.109375 1.0625q-0.390625 0.6875 -0.390625 1.59375l0 8.28125l-3.90625 0z" fill-rule="nonzero"/><path fill="#ffffff" d="m154.21523 335.66928l141.07088 0l0 72.0l-141.07088 0z" fill-rule="evenodd"/><path stroke="#000000" stroke-width="2.0" stroke-linejoin="round" stroke-linecap="butt" d="m154.21523 335.66928l141.07088 0l0 72.0l-141.07088 0z" fill-rule="evenodd"/><path fill="#000000" d="m197.9642 376.4693l-2.609375 -9.703125l2.171875 0l1.125 4.78125q0.140625 0.59375 0.25 1.28125q0.109375 0.671875 0.21875 1.359375q0.125 0.6875 0.21875 1.3125l-0.34375 0q0.109375 -0.625 0.21875 -1.3125q0.125 -0.6875 0.25 -1.359375q0.125 -0.6875 0.28125 -1.28125l1.1875 -4.78125l2.0625 0l1.171875 4.78125q0.15625 0.59375 0.265625 1.28125q0.125 0.671875 0.25 1.359375q0.125 0.6875 0.234375 1.3125l-0.359375 0q0.109375 -0.625 0.21875 -1.3125q0.109375 -0.6875 0.21875 -1.359375q0.125 -0.6875 0.25 -1.28125l1.140625 -4.78125l2.171875 0l-2.609375 9.703125l-2.265625 0l-1.296875 -4.953125q-0.203125 -0.828125 -0.359375 -1.796875q-0.140625 -0.96875 -0.3125 -1.984375l0.484375 0q-0.203125 1.0 -0.328125 1.953125q-0.125 0.9375 -0.359375 1.828125l-1.28125 4.953125l-2.265625 0zm14.368301 0.140625q-1.125 0 -1.9375 -0.453125q-0.796875 -0.453125 -1.234375 -1.296875q-0.421875 -0.84375 -0.421875 -1.984375q0 -1.125 0.421875 -1.96875q0.4375 -0.859375 1.21875 -1.328125q0.796875 -0.46875 1.84375 -0.46875q0.71875 0 1.328125 0.234375q0.625 0.21875 1.09375 0.671875q0.46875 0.453125 0.734375 1.15625q0.265625 0.6875 0.265625 1.625l0 0.546875l-6.109375 0l0 -1.234375l5.15625 0l-0.90625 0.328125q0 -0.5625 -0.1875 -0.984375q-0.171875 -0.421875 -0.515625 -0.640625q-0.328125 -0.234375 -0.84375 -0.234375q-0.5 0 -0.859375 0.234375q-0.34375 0.234375 -0.53125 0.640625q-0.1875 0.390625 -0.1875 0.90625l0 0.859375q0 0.640625 0.21875 1.078125q0.21875 0.421875 0.59375 0.640625q0.375 0.203125 0.890625 0.203125q0.34375 0 0.625 -0.09375q0.28125 -0.09375 0.46875 -0.28125q0.203125 -0.203125 0.3125 -0.484375l1.765625 0.328125q-0.171875 0.609375 -0.609375 1.0625q-0.4375 0.453125 -1.09375 0.703125q-0.65625 0.234375 -1.5 0.234375zm8.720856 -0.015625q-0.59375 0 -1.0 -0.203125q-0.40625 -0.203125 -0.671875 -0.5q-0.25 -0.296875 -0.390625 -0.59375l-0.09375 0l0 1.171875l-1.921875 0l0 -9.703125l1.953125 0l0 3.65625l0.0625 0q0.140625 -0.296875 0.390625 -0.59375q0.25 -0.3125 0.65625 -0.515625q0.40625 -0.203125 1.03125 -0.203125q0.8125 0 1.46875 0.421875q0.671875 0.40625 1.078125 1.234375q0.40625 0.828125 0.40625 2.078125q0 1.203125 -0.390625 2.046875q-0.390625 0.84375 -1.0625 1.28125q-0.671875 0.421875 -1.515625 0.421875zm-0.59375 -1.5625q0.5 0 0.84375 -0.28125q0.359375 -0.28125 0.53125 -0.78125q0.1875 -0.5 0.1875 -1.125q0 -0.640625 -0.1875 -1.125q-0.171875 -0.5 -0.515625 -0.78125q-0.34375 -0.28125 -0.859375 -0.28125q-0.5 0 -0.859375 0.28125q-0.34375 0.265625 -0.53125 0.75q-0.1875 0.484375 -0.1875 1.15625q0 0.65625 0.1875 1.15625q0.1875 0.484375 0.53125 0.765625q0.359375 0.265625 0.859375 0.265625zm7.5579987 1.4375l3.3125 -9.703125l2.609375 0l3.390625 9.703125l-2.203125 0l-1.546875 -4.671875q-0.28125 -0.90625 -0.578125 -1.984375q-0.28125 -1.078125 -0.609375 -2.359375l0.4375 0q-0.3125 1.28125 -0.578125 2.375q-0.265625 1.078125 -0.53125 1.96875l-1.5 4.671875l-2.203125 0zm2.078125 -2.25l0 -1.5625l5.171875 0l0 1.5625l-5.171875 0zm8.388046 4.96875l0 -10.0l1.921875 0l0 1.234375l0.09375 0q0.140625 -0.296875 0.390625 -0.59375q0.25 -0.3125 0.65625 -0.515625q0.40625 -0.203125 1.03125 -0.203125q0.8125 0 1.46875 0.421875q0.671875 0.40625 1.078125 1.234375q0.40625 0.828125 0.40625 2.078125q0 1.203125 -0.390625 2.046875q-0.390625 0.84375 -1.0625 1.28125q-0.671875 0.421875 -1.515625 0.421875q-0.59375 0 -1.0 -0.203125q-0.40625 -0.203125 -0.671875 -0.5q-0.25 -0.296875 -0.390625 -0.59375l-0.0625 0l0 3.890625l-1.953125 0zm3.484375 -4.15625q0.5 0 0.84375 -0.28125q0.359375 -0.28125 0.53125 -0.78125q0.1875 -0.5 0.1875 -1.125q0 -0.640625 -0.1875 -1.125q-0.171875 -0.5 -0.515625 -0.78125q-0.34375 -0.28125 -0.859375 -0.28125q-0.5 0 -0.859375 0.28125q-0.34375 0.265625 -0.53125 0.75q-0.1875 0.484375 -0.1875 1.15625q0 0.65625 0.1875 1.15625q0.1875 0.484375 0.53125 0.765625q0.359375 0.265625 0.859375 0.265625zm4.9172974 4.15625l0 -10.0l1.921875 0l0 1.234375l0.09375 0q0.140625 -0.296875 0.390625 -0.59375q0.25 -0.3125 0.65625 -0.515625q0.40625 -0.203125 1.03125 -0.203125q0.8125 0 1.46875 0.421875q0.671875 0.40625 1.078125 1.234375q0.40625 0.828125 0.40625 2.078125q0 1.203125 -0.390625 2.046875q-0.390625 0.84375 -1.0625 1.28125q-0.671875 0.421875 -1.515625 0.421875q-0.59375 0 -1.0 -0.203125q-0.40625 -0.203125 -0.671875 -0.5q-0.25 -0.296875 -0.390625 -0.59375l-0.0625 0l0 3.890625l-1.953125 0zm3.484375 -4.15625q0.5 0 0.84375 -0.28125q0.359375 -0.28125 0.53125 -0.78125q0.1875 -0.5 0.1875 -1.125q0 -0.640625 -0.1875 -1.125q-0.171875 -0.5 -0.515625 -0.78125q-0.34375 -0.28125 -0.859375 -0.28125q-0.5 0 -0.859375 0.28125q-0.34375 0.265625 -0.53125 0.75q-0.1875 0.484375 -0.1875 1.15625q0 0.65625 0.1875 1.15625q0.1875 0.484375 0.53125 0.765625q0.359375 0.265625 0.859375 0.265625z" fill-rule="nonzero"/><path fill="#000000" fill-opacity="0.0" d="m568.0026 360.0l314.96063 0l0 35.55905l-314.96063 0z" fill-rule="evenodd"/><path fill="#000000" d="m689.3672 373.7531l0 -1.65625l7.921875 0l0 1.65625l-2.953125 0l0 8.046875l-2.0 0l0 -8.046875l-2.96875 0zm8.484802 8.046875l0 -7.28125l1.890625 0l0 1.28125l0.078125 0q0.203125 -0.6875 0.671875 -1.03125q0.46875 -0.34375 1.09375 -0.34375q0.140625 0 0.3125 0.015625q0.171875 0.015625 0.3125 0.046875l0 1.75q-0.125 -0.046875 -0.375 -0.0625q-0.25 -0.03125 -0.46875 -0.03125q-0.453125 0 -0.8125 0.1875q-0.34375 0.1875 -0.546875 0.53125q-0.203125 0.34375 -0.203125 0.796875l0 4.140625l-1.953125 0zm7.2765503 0.140625q-0.6875 0 -1.234375 -0.234375q-0.546875 -0.25 -0.875 -0.734375q-0.3125 -0.484375 -0.3125 -1.203125q0 -0.609375 0.21875 -1.015625q0.234375 -0.421875 0.625 -0.65625q0.390625 -0.25 0.875 -0.375q0.5 -0.140625 1.03125 -0.1875q0.625 -0.0625 1.015625 -0.109375q0.390625 -0.0625 0.5625 -0.1875q0.1875 -0.125 0.1875 -0.359375l0 -0.03125q0 -0.3125 -0.140625 -0.515625q-0.125 -0.21875 -0.375 -0.328125q-0.25 -0.125 -0.625 -0.125q-0.375 0 -0.65625 0.125q-0.28125 0.109375 -0.453125 0.296875q-0.171875 0.1875 -0.265625 0.421875l-1.78125 -0.296875q0.1875 -0.640625 0.625 -1.078125q0.4375 -0.4375 1.078125 -0.671875q0.640625 -0.234375 1.453125 -0.234375q0.59375 0 1.140625 0.140625q0.5625 0.125 1.0 0.421875q0.4375 0.296875 0.6875 0.765625q0.265625 0.46875 0.265625 1.125l0 4.90625l-1.84375 0l0 -1.015625l-0.078125 0q-0.171875 0.34375 -0.46875 0.609375q-0.28125 0.25 -0.703125 0.40625q-0.40625 0.140625 -0.953125 0.140625zm0.5625 -1.375q0.453125 0 0.796875 -0.171875q0.359375 -0.1875 0.546875 -0.5q0.203125 -0.3125 0.203125 -0.703125l0 -0.78125q-0.09375 0.0625 -0.265625 0.125q-0.171875 0.046875 -0.390625 0.09375q-0.21875 0.03125 -0.421875 0.0625q-0.203125 0.03125 -0.375 0.046875q-0.359375 0.0625 -0.640625 0.1875q-0.265625 0.109375 -0.421875 0.296875q-0.140625 0.1875 -0.140625 0.484375q0 0.28125 0.140625 0.484375q0.15625 0.1875 0.390625 0.28125q0.25 0.09375 0.578125 0.09375zm7.097229 -2.96875l0 4.203125l-1.953125 0l0 -7.28125l1.84375 0l0.03125 1.828125l-0.109375 0q0.28125 -0.921875 0.859375 -1.40625q0.59375 -0.5 1.515625 -0.5q0.75 0 1.3125 0.328125q0.5625 0.328125 0.875 0.9375q0.3125 0.609375 0.3125 1.46875l0 4.625l-1.953125 0l0 -4.28125q0 -0.6875 -0.359375 -1.0625q-0.34375 -0.390625 -0.953125 -0.390625q-0.421875 0 -0.75 0.1875q-0.3125 0.171875 -0.5 0.515625q-0.171875 0.328125 -0.171875 0.828125zm9.235046 4.34375q-0.875 0 -1.5625 -0.25q-0.671875 -0.25 -1.109375 -0.71875q-0.421875 -0.484375 -0.546875 -1.15625l1.828125 -0.3125q0.140625 0.5 0.5 0.765625q0.359375 0.25 0.953125 0.25q0.546875 0 0.875 -0.21875q0.328125 -0.21875 0.328125 -0.53125q0 -0.296875 -0.234375 -0.46875q-0.234375 -0.1875 -0.703125 -0.28125l-1.25 -0.265625q-1.0625 -0.21875 -1.578125 -0.734375q-0.515625 -0.515625 -0.515625 -1.328125q0 -0.703125 0.375 -1.203125q0.390625 -0.5 1.0625 -0.765625q0.6875 -0.28125 1.609375 -0.28125q0.859375 0 1.484375 0.234375q0.640625 0.234375 1.03125 0.671875q0.390625 0.4375 0.515625 1.03125l-1.71875 0.296875q-0.109375 -0.375 -0.4375 -0.609375q-0.3125 -0.234375 -0.84375 -0.234375q-0.484375 0 -0.8125 0.203125q-0.3125 0.203125 -0.3125 0.53125q0 0.28125 0.203125 0.46875q0.21875 0.1875 0.71875 0.296875l1.3125 0.265625q1.0625 0.203125 1.5625 0.6875q0.515625 0.484375 0.515625 1.265625q0 0.71875 -0.421875 1.265625q-0.40625 0.53125 -1.140625 0.828125q-0.734375 0.296875 -1.6875 0.296875zm6.5270386 -9.84375l0 9.703125l-1.953125 0l0 -9.703125l1.953125 0zm3.6900024 9.84375q-0.6875 0 -1.234375 -0.234375q-0.546875 -0.25 -0.875 -0.734375q-0.3125 -0.484375 -0.3125 -1.203125q0 -0.609375 0.21875 -1.015625q0.234375 -0.421875 0.625 -0.65625q0.390625 -0.25 0.875 -0.375q0.5 -0.140625 1.03125 -0.1875q0.625 -0.0625 1.015625 -0.109375q0.390625 -0.0625 0.5625 -0.1875q0.1875 -0.125 0.1875 -0.359375l0 -0.03125q0 -0.3125 -0.140625 -0.515625q-0.125 -0.21875 -0.375 -0.328125q-0.25 -0.125 -0.625 -0.125q-0.375 0 -0.65625 0.125q-0.28125 0.109375 -0.453125 0.296875q-0.171875 0.1875 -0.265625 0.421875l-1.78125 -0.296875q0.1875 -0.640625 0.625 -1.078125q0.4375 -0.4375 1.078125 -0.671875q0.640625 -0.234375 1.453125 -0.234375q0.59375 0 1.140625 0.140625q0.5625 0.125 1.0 0.421875q0.4375 0.296875 0.6875 0.765625q0.265625 0.46875 0.265625 1.125l0 4.90625l-1.84375 0l0 -1.015625l-0.078125 0q-0.171875 0.34375 -0.46875 0.609375q-0.28125 0.25 -0.703125 0.40625q-0.40625 0.140625 -0.953125 0.140625zm0.5625 -1.375q0.453125 0 0.796875 -0.171875q0.359375 -0.1875 0.546875 -0.5q0.203125 -0.3125 0.203125 -0.703125l0 -0.78125q-0.09375 0.0625 -0.265625 0.125q-0.171875 0.046875 -0.390625 0.09375q-0.21875 0.03125 -0.421875 0.0625q-0.203125 0.03125 -0.375 0.046875q-0.359375 0.0625 -0.640625 0.1875q-0.265625 0.109375 -0.421875 0.296875q-0.140625 0.1875 -0.140625 0.484375q0 0.28125 0.140625 0.484375q0.15625 0.1875 0.390625 0.28125q0.25 0.09375 0.578125 0.09375zm8.753479 -6.046875l0 1.5l-4.3125 0l0 -1.5l4.3125 0zm-3.3125 -1.71875l1.953125 0l0 6.875q0 0.34375 0.15625 0.515625q0.15625 0.15625 0.515625 0.15625q0.109375 0 0.3125 -0.03125q0.203125 -0.03125 0.296875 -0.046875l0.28125 1.453125q-0.3125 0.109375 -0.640625 0.140625q-0.328125 0.046875 -0.609375 0.046875q-1.09375 0 -1.6875 -0.53125q-0.578125 -0.546875 -0.578125 -1.53125l0 -7.046875zm4.5840454 9.0l0 -7.28125l1.953125 0l0 7.28125l-1.953125 0zm0.96875 -8.21875q-0.4375 0 -0.75 -0.296875q-0.3125 -0.296875 -0.3125 -0.71875q0 -0.40625 0.3125 -0.703125q0.3125 -0.296875 0.75 -0.296875q0.453125 0 0.765625 0.296875q0.3125 0.28125 0.3125 0.703125q0 0.421875 -0.3125 0.71875q-0.3125 0.296875 -0.765625 0.296875zm5.9087524 8.359375q-1.09375 0 -1.90625 -0.46875q-0.796875 -0.46875 -1.234375 -1.3125q-0.421875 -0.84375 -0.421875 -1.96875q0 -1.125 0.421875 -1.96875q0.4375 -0.84375 1.234375 -1.3125q0.8125 -0.46875 1.90625 -0.46875q1.09375 0 1.890625 0.46875q0.796875 0.46875 1.21875 1.3125q0.4375 0.84375 0.4375 1.96875q0 1.125 -0.4375 1.96875q-0.421875 0.84375 -1.21875 1.3125q-0.796875 0.46875 -1.890625 0.46875zm0 -1.53125q0.515625 0 0.859375 -0.28125q0.359375 -0.296875 0.53125 -0.796875q0.171875 -0.515625 0.171875 -1.140625q0 -0.640625 -0.171875 -1.140625q-0.171875 -0.515625 -0.53125 -0.796875q-0.34375 -0.28125 -0.859375 -0.28125q-0.53125 0 -0.875 0.28125q-0.34375 0.28125 -0.53125 0.796875q-0.171875 0.5 -0.171875 1.140625q0 0.625 0.171875 1.140625q0.1875 0.5 0.53125 0.796875q0.34375 0.28125 0.875 0.28125zm6.861389 -2.8125l0 4.203125l-1.953125 0l0 -7.28125l1.84375 0l0.03125 1.828125l-0.109375 0q0.28125 -0.921875 0.859375 -1.40625q0.59375 -0.5 1.515625 -0.5q0.75 0 1.3125 0.328125q0.5625 0.328125 0.875 0.9375q0.3125 0.609375 0.3125 1.46875l0 4.625l-1.953125 0l0 -4.28125q0 -0.6875 -0.359375 -1.0625q-0.34375 -0.390625 -0.953125 -0.390625q-0.421875 0 -0.75 0.1875q-0.3125 0.171875 -0.5 0.515625q-0.171875 0.328125 -0.171875 0.828125z" fill-rule="nonzero"/></g></svg>