<svg version="1.1" viewBox="0.0 0.0 960.0 720.0" fill="none" stroke="none" stroke-linecap="square" stroke-miterlimit="10" xmlns:xlink="http://www.w3.org/1999/xlink" xmlns="http://www.w3.org/2000/svg"><clipPath id="p.0"><path d="m0 0l960.0 0l0 720.0l-960.0 0l0 -720.0z" clip-rule="nonzero"/></clipPath><g clip-path="url(#p.0)"><path fill="#000000" fill-opacity="0.0" d="m0 0l960.0 0l0 720.0l-960.0 0z" fill-rule="evenodd"/><path fill="#f3f3f3" d="m327.92606 207.93701l304.126 0l0 304.12598l-304.126 0z" fill-rule="evenodd"/><path stroke="#000000" stroke-width="2.0" stroke-linejoin="round" stroke-linecap="butt" d="m327.92606 207.93701l304.126 0l0 304.12598l-304.126 0z" fill-rule="evenodd"/><path fill="#000000" fill-opacity="0.0" d="m245.5748 225.52226l468.85037 0l0 51.716537l-468.85037 0z" fill-rule="evenodd"/><path fill="#000000" d="m427.67627 260.12225l0 -19.390625l7.703125 0q2.125 0 3.546875 0.640625q1.4375 0.640625 2.140625 1.765625q0.71875 1.125 0.71875 2.578125q0 1.140625 -0.46875 2.0q-0.453125 0.84375 -1.25 1.390625q-0.78125 0.53125 -1.78125 0.765625l0 0.203125q1.09375 0.03125 2.0625 0.625q0.96875 0.578125 1.578125 1.609375q0.609375 1.03125 0.609375 2.46875q0 1.53125 -0.765625 2.75q-0.75 1.203125 -2.234375 1.90625q-1.46875 0.6875 -3.671875 0.6875l-8.1875 0zm3.984375 -3.265625l3.421875 0q1.75 0 2.546875 -0.671875q0.8125 -0.6875 0.8125 -1.78125q0 -0.828125 -0.390625 -1.453125q-0.390625 -0.640625 -1.125 -1.0q-0.734375 -0.359375 -1.734375 -0.359375l-3.53125 0l0 5.265625zm0 -7.984375l3.125 0q0.84375 0 1.515625 -0.296875q0.6875 -0.3125 1.0625 -0.875q0.390625 -0.5625 0.390625 -1.34375q0 -1.0625 -0.75 -1.71875q-0.75 -0.671875 -2.140625 -0.671875l-3.203125 0l0 4.90625zm13.573853 11.25l0 -14.546875l3.765625 0l0 2.53125l0.15625 0q0.40625 -1.34375 1.34375 -2.03125q0.953125 -0.703125 2.171875 -0.703125q0.296875 0 0.640625 0.03125q0.34375 0.03125 0.625 0.109375l0 3.484375q-0.265625 -0.09375 -0.765625 -0.140625q-0.484375 -0.0625 -0.921875 -0.0625q-0.890625 0 -1.609375 0.390625q-0.71875 0.375 -1.109375 1.0625q-0.390625 0.6875 -0.390625 1.59375l0 8.28125l-3.90625 0zm16.704071 0.28125q-2.1875 0 -3.796875 -0.9375q-1.59375 -0.9375 -2.46875 -2.625q-0.859375 -1.6875 -0.859375 -3.921875q0 -2.265625 0.859375 -3.953125q0.875 -1.6875 2.46875 -2.625q1.609375 -0.953125 3.796875 -0.953125q2.203125 0 3.796875 0.953125q1.59375 0.9375 2.453125 2.625q0.875 1.6875 0.875 3.953125q0 2.234375 -0.875 3.921875q-0.859375 1.6875 -2.453125 2.625q-1.59375 0.9375 -3.796875 0.9375zm0 -3.0625q1.046875 0 1.75 -0.578125q0.703125 -0.578125 1.046875 -1.59375q0.359375 -1.015625 0.359375 -2.265625q0 -1.296875 -0.359375 -2.296875q-0.34375 -1.0 -1.046875 -1.5625q-0.703125 -0.578125 -1.75 -0.578125q-1.046875 0 -1.75 0.578125q-0.6875 0.5625 -1.046875 1.5625q-0.34375 1.0 -0.34375 2.296875q0 1.25 0.34375 2.265625q0.359375 1.015625 1.046875 1.59375q0.703125 0.578125 1.75 0.578125zm12.514465 2.78125l-4.296875 -14.546875l4.09375 0l1.265625 5.375q0.328125 1.4375 0.703125 3.140625q0.375 1.703125 0.6875 3.75l-0.4375 0q0.328125 -2.0 0.734375 -3.703125q0.40625 -1.703125 0.765625 -3.1875l1.328125 -5.375l3.59375 0l1.28125 5.375q0.34375 1.46875 0.734375 3.171875q0.40625 1.6875 0.765625 3.71875l-0.453125 0q0.3125 -2.015625 0.671875 -3.703125q0.359375 -1.703125 0.703125 -3.1875l1.265625 -5.375l4.140625 0l-4.3125 14.546875l-3.96875 0l-1.609375 -5.609375q-0.234375 -0.84375 -0.46875 -1.859375q-0.234375 -1.03125 -0.46875 -2.09375q-0.21875 -1.0625 -0.453125 -1.984375l0.6875 0q-0.21875 0.921875 -0.453125 1.984375q-0.21875 1.0625 -0.453125 2.09375q-0.234375 1.03125 -0.46875 1.859375l-1.609375 5.609375l-3.96875 0zm25.394775 0.28125q-1.75 0 -3.109375 -0.5q-1.34375 -0.5 -2.203125 -1.453125q-0.859375 -0.953125 -1.109375 -2.3125l3.625 -0.625q0.296875 1.015625 1.0 1.53125q0.71875 0.5 1.921875 0.5q1.109375 0 1.75 -0.421875q0.65625 -0.421875 0.65625 -1.078125q0 -0.5625 -0.46875 -0.921875q-0.453125 -0.375 -1.40625 -0.578125l-2.515625 -0.515625q-2.109375 -0.421875 -3.15625 -1.453125q-1.03125 -1.046875 -1.03125 -2.671875q0 -1.40625 0.765625 -2.40625q0.765625 -1.015625 2.125 -1.5625q1.375 -0.546875 3.234375 -0.546875q1.71875 0 2.96875 0.484375q1.265625 0.46875 2.046875 1.34375q0.78125 0.859375 1.046875 2.046875l-3.46875 0.609375q-0.21875 -0.734375 -0.859375 -1.203125q-0.625 -0.484375 -1.6875 -0.484375q-0.96875 0 -1.625 0.40625q-0.640625 0.40625 -0.640625 1.0625q0 0.5625 0.421875 0.9375q0.421875 0.375 1.453125 0.59375l2.609375 0.515625q2.109375 0.4375 3.140625 1.40625q1.03125 0.96875 1.03125 2.53125q0 1.421875 -0.84375 2.5q-0.828125 1.078125 -2.296875 1.671875q-1.453125 0.59375 -3.375 0.59375zm15.725983 0q-2.21875 0 -3.8437805 -0.90625q-1.609375 -0.90625 -2.484375 -2.578125q-0.859375 -1.6875 -0.859375 -4.0q0 -2.25 0.859375 -3.9375q0.859375 -1.6875 2.4375 -2.640625q1.5781555 -0.953125 3.7031555 -0.953125q1.421875 0 2.65625 0.453125q1.25 0.453125 2.1875 1.375q0.9375 0.921875 1.453125 2.296875q0.53125 1.375 0.53125 3.25l0 1.09375l-12.2187805 0l0 -2.4375l10.3125305 0l-1.828125 0.640625q0 -1.125 -0.34375 -1.96875q-0.34375 -0.84375 -1.03125 -1.296875q-0.6875 -0.46875 -1.703125 -0.46875q-1.0 0 -1.703125 0.46875q-0.703125 0.46875 -1.078125 1.28125q-0.359375 0.796875 -0.359375 1.828125l0 1.71875q0 1.265625 0.421875 2.125q0.421875 0.859375 1.171875 1.296875q0.765625 0.421875 1.78125 0.421875q0.703125 0 1.25 -0.1875q0.5625 -0.203125 0.953125 -0.578125q0.40625 -0.390625 0.609375 -0.953125l3.546875 0.671875q-0.359375 1.1875 -1.234375 2.09375q-0.859375 0.90625 -2.171875 1.40625q-1.3125 0.484375 -3.015625 0.484375zm9.316711 -0.28125l0 -14.546875l3.765625 0l0 2.53125l0.15625 0q0.40625 -1.34375 1.34375 -2.03125q0.953125 -0.703125 2.171875 -0.703125q0.296875 0 0.640625 0.03125q0.34375 0.03125 0.625 0.109375l0 3.484375q-0.265625 -0.09375 -0.765625 -0.140625q-0.484375 -0.0625 -0.921875 -0.0625q-0.890625 0 -1.609375 0.390625q-0.71875 0.375 -1.109375 1.0625q-0.390625 0.6875 -0.390625 1.59375l0 8.28125l-3.90625 0z" fill-rule="nonzero"/><path fill="#ffffff" d="m374.99738 323.788l209.98425 0l0 168.53543l-209.98425 0z" fill-rule="evenodd"/><path stroke="#000000" stroke-width="2.0" stroke-linejoin="round" stroke-linecap="butt" d="m374.99738 323.788l209.98425 0l0 168.53543l-209.98425 0z" fill-rule="evenodd"/><path fill="#000000" fill-opacity="0.0" d="m322.51968 342.22046l314.9606 0l0 42.015747l-314.9606 0z" fill-rule="evenodd"/><path fill="#000000" d="m442.50916 369.14047l-3.640625 -13.578125l3.03125 0l1.578125 6.6875q0.1875 0.828125 0.34375 1.78125q0.15625 0.953125 0.3125 1.921875q0.15625 0.953125 0.296875 1.84375l-0.484375 0q0.15625 -0.890625 0.3125 -1.84375q0.171875 -0.96875 0.34375 -1.921875q0.1875 -0.953125 0.390625 -1.78125l1.65625 -6.6875l2.890625 0l1.640625 6.6875q0.21875 0.828125 0.390625 1.78125q0.171875 0.953125 0.34375 1.921875q0.171875 0.953125 0.328125 1.84375l-0.515625 0q0.15625 -0.890625 0.3125 -1.84375q0.15625 -0.96875 0.3125 -1.921875q0.171875 -0.953125 0.359375 -1.78125l1.578125 -6.6875l3.03125 0l-3.640625 13.578125l-3.171875 0l-1.8125 -6.9375q-0.28125 -1.15625 -0.5 -2.5q-0.203125 -1.359375 -0.453125 -2.78125l0.6875 0q-0.28125 1.390625 -0.46875 2.71875q-0.171875 1.328125 -0.484375 2.5625l-1.796875 6.9375l-3.171875 0zm20.099884 0.203125q-1.5625 0 -2.6875 -0.640625q-1.125 -0.640625 -1.734375 -1.8125q-0.609375 -1.171875 -0.609375 -2.78125q0 -1.578125 0.59375 -2.765625q0.609375 -1.1875 1.703125 -1.84375q1.109375 -0.671875 2.59375 -0.671875q1.0 0 1.859375 0.328125q0.875 0.3125 1.53125 0.953125q0.65625 0.640625 1.015625 1.609375q0.375 0.96875 0.375 2.28125l0 0.765625l-8.546875 0l0 -1.71875l7.21875 0l-1.28125 0.453125q0 -0.796875 -0.25 -1.375q-0.234375 -0.59375 -0.71875 -0.90625q-0.46875 -0.328125 -1.1875 -0.328125q-0.6875 0 -1.1875 0.328125q-0.5 0.328125 -0.765625 0.890625q-0.25 0.546875 -0.25 1.28125l0 1.203125q0 0.890625 0.296875 1.5q0.296875 0.59375 0.828125 0.890625q0.53125 0.296875 1.25 0.296875q0.484375 0 0.875 -0.125q0.390625 -0.140625 0.671875 -0.40625q0.28125 -0.28125 0.421875 -0.671875l2.46875 0.46875q-0.234375 0.828125 -0.84375 1.46875q-0.609375 0.640625 -1.53125 0.984375q-0.921875 0.34375 -2.109375 0.34375zm12.222961 -0.03125q-0.828125 0 -1.40625 -0.28125q-0.578125 -0.28125 -0.9375 -0.6875q-0.359375 -0.421875 -0.546875 -0.828125l-0.125 0l0 1.625l-2.6875 0l0 -13.578125l2.734375 0l0 5.109375l0.078125 0q0.1875 -0.40625 0.53125 -0.828125q0.359375 -0.4375 0.921875 -0.71875q0.578125 -0.296875 1.453125 -0.296875q1.125 0 2.0625 0.59375q0.9375 0.578125 1.5 1.75q0.5625 1.15625 0.5625 2.890625q0 1.703125 -0.546875 2.875q-0.546875 1.171875 -1.484375 1.78125q-0.9375 0.59375 -2.109375 0.59375zm-0.84375 -2.1875q0.703125 0 1.1875 -0.390625q0.5 -0.40625 0.75 -1.09375q0.25 -0.6875 0.25 -1.578125q0 -0.890625 -0.25 -1.578125q-0.25 -0.6875 -0.734375 -1.078125q-0.484375 -0.390625 -1.203125 -0.390625q-0.703125 0 -1.203125 0.375q-0.484375 0.375 -0.75 1.0625q-0.25 0.671875 -0.25 1.609375q0 0.921875 0.265625 1.609375q0.265625 0.6875 0.75 1.078125q0.5 0.375 1.1875 0.375zm10.600342 2.015625l4.625 -13.578125l3.65625 0l4.75 13.578125l-3.09375 0l-2.171875 -6.546875q-0.390625 -1.265625 -0.796875 -2.765625q-0.40625 -1.515625 -0.859375 -3.296875l0.609375 0q-0.4375 1.78125 -0.8125 3.3125q-0.375 1.515625 -0.75 2.75l-2.09375 6.546875l-3.0625 0zm2.890625 -3.15625l0 -2.171875l7.234375 0l0 2.171875l-7.234375 0zm11.756531 6.96875l0 -14.0l2.6875 0l0 1.71875l0.125 0q0.1875 -0.40625 0.53125 -0.828125q0.359375 -0.4375 0.921875 -0.71875q0.578125 -0.296875 1.453125 -0.296875q1.125 0 2.0625 0.59375q0.9375 0.578125 1.5 1.75q0.5625 1.15625 0.5625 2.890625q0 1.703125 -0.546875 2.875q-0.546875 1.171875 -1.484375 1.78125q-0.9375 0.59375 -2.109375 0.59375q-0.828125 0 -1.40625 -0.28125q-0.578125 -0.28125 -0.9375 -0.6875q-0.359375 -0.421875 -0.546875 -0.828125l-0.078125 0l0 5.4375l-2.734375 0zm4.859375 -5.828125q0.703125 0 1.1875 -0.390625q0.5 -0.40625 0.75 -1.09375q0.25 -0.6875 0.25 -1.578125q0 -0.890625 -0.25 -1.578125q-0.25 -0.6875 -0.734375 -1.078125q-0.484375 -0.390625 -1.203125 -0.390625q-0.703125 0 -1.203125 0.375q-0.484375 0.375 -0.75 1.0625q-0.25 0.671875 -0.25 1.609375q0 0.921875 0.265625 1.609375q0.265625 0.6875 0.75 1.078125q0.5 0.375 1.1875 0.375zm6.901001 5.828125l0 -14.0l2.6874695 0l0 1.71875l0.125 0q0.1875 -0.40625 0.53125 -0.828125q0.359375 -0.4375 0.921875 -0.71875q0.578125 -0.296875 1.453125 -0.296875q1.125 0 2.0625 0.59375q0.9375 0.578125 1.5 1.75q0.5625 1.15625 0.5625 2.890625q0 1.703125 -0.546875 2.875q-0.546875 1.171875 -1.484375 1.78125q-0.9375 0.59375 -2.109375 0.59375q-0.828125 0 -1.40625 -0.28125q-0.578125 -0.28125 -0.9375 -0.6875q-0.359375 -0.421875 -0.546875 -0.828125l-0.078125 0l0 5.4375l-2.7343445 0zm4.8593445 -5.828125q0.703125 0 1.1875 -0.390625q0.5 -0.40625 0.75 -1.09375q0.25 -0.6875 0.25 -1.578125q0 -0.890625 -0.25 -1.578125q-0.25 -0.6875 -0.734375 -1.078125q-0.484375 -0.390625 -1.203125 -0.390625q-0.703125 0 -1.203125 0.375q-0.484375 0.375 -0.75 1.0625q-0.25 0.671875 -0.25 1.609375q0 0.921875 0.265625 1.609375q0.265625 0.6875 0.75 1.078125q0.5 0.375 1.1875 0.375z" fill-rule="nonzero"/><path fill="#ffffff" d="m429.92847 408.05472l103.7453 0l0 57.075165c-51.869873 0 -51.869873 21.959625 -103.7453 10.979828zm8.547333 0l0 -7.3994446l103.03671 0l0 57.433197c-3.916565 0 -7.838745 0.39782715 -7.838745 0.39782715l0 -50.43158zm8.034058 -7.3994446l0 -7.2204285l103.92941 0l0 57.25418c-4.463379 0 -8.926758 0.29837036 -8.926758 0.29837036l0 -50.332123z" fill-rule="evenodd"/><path fill="#000000" fill-opacity="0.0" d="m429.92847 408.05472l103.7453 0l0 57.075165c-51.869873 0 -51.869873 21.959625 -103.7453 10.979828zm8.547333 0l0 -7.3994446l103.03671 0l0 57.433197c-3.916565 0 -7.838745 0.39782715 -7.838745 0.39782715m-87.16391 -57.831024l0 -7.2204285l103.92941 0l0 57.25418c-4.463379 0 -8.926758 0.29837036 -8.926758 0.29837036" fill-rule="evenodd"/><path fill="#000000" fill-opacity="0.0" d="m429.92847 476.1097c51.875427 10.979797 51.875427 -10.979828 103.7453 -10.979828l0 -6.643585c0 0 3.9221802 -0.39782715 7.838745 -0.39782715l0 -7.101074c0 0 4.463379 -0.29837036 8.926758 -0.29837036l0 -57.25418l-103.92941 0l0 7.2204285l-8.034058 0l0 7.3994446l-8.547333 0z" fill-rule="evenodd"/><path stroke="#000000" stroke-width="2.0" stroke-linejoin="round" stroke-linecap="butt" d="m429.92847 408.05472l103.7453 0l0 57.075165c-51.869873 0 -51.869873 21.959625 -103.7453 10.979828zm8.547333 0l0 -7.3994446l103.03671 0l0 57.433197c-3.916565 0 -7.838745 0.39782715 -7.838745 0.39782715m-87.16391 -57.831024l0 -7.2204285l103.92941 0l0 57.25418c-4.463379 0 -8.926758 0.29837036 -8.926758 0.29837036" fill-rule="evenodd"/><path fill="#000000" fill-opacity="0.0" d="m345.47925 426.4303l269.03937 0l0 35.5401l-269.03937 0z" fill-rule="evenodd"/><path fill="#000000" d="m443.88318 440.1834l0 -1.65625l7.921875 0l0 1.65625l-2.953125 0l0 8.046875l-2.0 0l0 -8.046875l-2.96875 0zm8.484802 8.046875l0 -7.28125l1.890625 0l0 1.28125l0.078125 0q0.203125 -0.6875 0.671875 -1.03125q0.46875 -0.34375 1.09375 -0.34375q0.140625 0 0.3125 0.015625q0.171875 0.015625 0.3125 0.046875l0 1.75q-0.125 -0.046875 -0.375 -0.0625q-0.25 -0.03125 -0.46875 -0.03125q-0.453125 0 -0.8125 0.1875q-0.34375 0.1875 -0.546875 0.53125q-0.203125 0.34375 -0.203125 0.796875l0 4.140625l-1.953125 0zm7.27652 0.140625q-0.6875 0 -1.234375 -0.234375q-0.546875 -0.25 -0.875 -0.734375q-0.3125 -0.484375 -0.3125 -1.203125q0 -0.609375 0.21875 -1.015625q0.234375 -0.421875 0.625 -0.65625q0.390625 -0.25 0.875 -0.375q0.5 -0.140625 1.03125 -0.1875q0.625 -0.0625 1.015625 -0.109375q0.390625 -0.0625 0.5625 -0.1875q0.1875 -0.125 0.1875 -0.359375l0 -0.03125q0 -0.3125 -0.140625 -0.515625q-0.125 -0.21875 -0.375 -0.328125q-0.25 -0.125 -0.625 -0.125q-0.375 0 -0.65625 0.125q-0.28125 0.109375 -0.453125 0.296875q-0.171875 0.1875 -0.265625 0.421875l-1.78125 -0.296875q0.1875 -0.640625 0.625 -1.078125q0.4375 -0.4375 1.078125 -0.671875q0.640625 -0.234375 1.453125 -0.234375q0.59375 0 1.140625 0.140625q0.5625 0.125 1.0 0.421875q0.4375 0.296875 0.6875 0.765625q0.265625 0.46875 0.265625 1.125l0 4.90625l-1.84375 0l0 -1.015625l-0.078125 0q-0.171875 0.34375 -0.46875 0.609375q-0.28125 0.25 -0.703125 0.40625q-0.40625 0.140625 -0.953125 0.140625zm0.5625 -1.375q0.453125 0 0.796875 -0.171875q0.359375 -0.1875 0.546875 -0.5q0.203125 -0.3125 0.203125 -0.703125l0 -0.78125q-0.09375 0.0625 -0.265625 0.125q-0.171875 0.046875 -0.390625 0.09375q-0.21875 0.03125 -0.421875 0.0625q-0.203125 0.03125 -0.375 0.046875q-0.359375 0.0625 -0.640625 0.1875q-0.265625 0.109375 -0.421875 0.296875q-0.140625 0.1875 -0.140625 0.484375q0 0.28125 0.140625 0.484375q0.15625 0.1875 0.390625 0.28125q0.25 0.09375 0.578125 0.09375zm7.0972595 -2.96875l0 4.203125l-1.953125 0l0 -7.28125l1.84375 0l0.03125 1.828125l-0.109375 0q0.28125 -0.921875 0.859375 -1.40625q0.59375 -0.5 1.515625 -0.5q0.75 0 1.3125 0.328125q0.5625 0.328125 0.875 0.9375q0.3125 0.609375 0.3125 1.46875l0 4.625l-1.953125 0l0 -4.28125q0 -0.6875 -0.359375 -1.0625q-0.34375 -0.390625 -0.953125 -0.390625q-0.421875 0 -0.75 0.1875q-0.3125 0.171875 -0.5 0.515625q-0.171875 0.328125 -0.171875 0.828125zm9.235046 4.34375q-0.875 0 -1.5625 -0.25q-0.671875 -0.25 -1.109375 -0.71875q-0.421875 -0.484375 -0.546875 -1.15625l1.828125 -0.3125q0.140625 0.5 0.5 0.765625q0.359375 0.25 0.953125 0.25q0.546875 0 0.875 -0.21875q0.328125 -0.21875 0.328125 -0.53125q0 -0.296875 -0.234375 -0.46875q-0.234375 -0.1875 -0.703125 -0.28125l-1.25 -0.265625q-1.0625 -0.21875 -1.578125 -0.734375q-0.515625 -0.515625 -0.515625 -1.328125q0 -0.703125 0.375 -1.203125q0.390625 -0.5 1.0625 -0.765625q0.6875 -0.28125 1.609375 -0.28125q0.859375 0 1.484375 0.234375q0.640625 0.234375 1.03125 0.671875q0.390625 0.4375 0.515625 1.03125l-1.71875 0.296875q-0.109375 -0.375 -0.4375 -0.609375q-0.3125 -0.234375 -0.84375 -0.234375q-0.484375 0 -0.8125 0.203125q-0.3125 0.203125 -0.3125 0.53125q0 0.28125 0.203125 0.46875q0.21875 0.1875 0.71875 0.296875l1.3125 0.265625q1.0625 0.203125 1.5625 0.6875q0.515625 0.484375 0.515625 1.265625q0 0.71875 -0.421875 1.265625q-0.40625 0.53125 -1.140625 0.828125q-0.734375 0.296875 -1.6875 0.296875zm6.5270386 -9.84375l0 9.703125l-1.953125 0l0 -9.703125l1.953125 0zm3.6900024 9.84375q-0.6875 0 -1.234375 -0.234375q-0.546875 -0.25 -0.875 -0.734375q-0.3125 -0.484375 -0.3125 -1.203125q0 -0.609375 0.21875 -1.015625q0.234375 -0.421875 0.625 -0.65625q0.390625 -0.25 0.875 -0.375q0.5 -0.140625 1.03125 -0.1875q0.625 -0.0625 1.015625 -0.109375q0.390625 -0.0625 0.5625 -0.1875q0.1875 -0.125 0.1875 -0.359375l0 -0.03125q0 -0.3125 -0.140625 -0.515625q-0.125 -0.21875 -0.375 -0.328125q-0.25 -0.125 -0.625 -0.125q-0.375 0 -0.65625 0.125q-0.28125 0.109375 -0.453125 0.296875q-0.171875 0.1875 -0.265625 0.421875l-1.78125 -0.296875q0.1875 -0.640625 0.625 -1.078125q0.4375 -0.4375 1.078125 -0.671875q0.640625 -0.234375 1.453125 -0.234375q0.59375 0 1.140625 0.140625q0.5625 0.125 1.0 0.421875q0.4375 0.296875 0.6875 0.765625q0.265625 0.46875 0.265625 1.125l0 4.90625l-1.84375 0l0 -1.015625l-0.078125 0q-0.171875 0.34375 -0.46875 0.609375q-0.28125 0.25 -0.703125 0.40625q-0.40625 0.140625 -0.953125 0.140625zm0.5625 -1.375q0.453125 0 0.796875 -0.171875q0.359375 -0.1875 0.546875 -0.5q0.203125 -0.3125 0.203125 -0.703125l0 -0.78125q-0.09375 0.0625 -0.265625 0.125q-0.171875 0.046875 -0.390625 0.09375q-0.21875 0.03125 -0.421875 0.0625q-0.203125 0.03125 -0.375 0.046875q-0.359375 0.0625 -0.640625 0.1875q-0.265625 0.109375 -0.421875 0.296875q-0.140625 0.1875 -0.140625 0.484375q0 0.28125 0.140625 0.484375q0.15625 0.1875 0.390625 0.28125q0.25 0.09375 0.578125 0.09375zm8.753479 -6.046875l0 1.5l-4.3125 0l0 -1.5l4.3125 0zm-3.3125 -1.71875l1.953125 0l0 6.875q0 0.34375 0.15625 0.515625q0.15625 0.15625 0.515625 0.15625q0.109375 0 0.3125 -0.03125q0.203125 -0.03125 0.296875 -0.046875l0.28125 1.453125q-0.3125 0.109375 -0.640625 0.140625q-0.328125 0.046875 -0.609375 0.046875q-1.09375 0 -1.6875 -0.53125q-0.578125 -0.546875 -0.578125 -1.53125l0 -7.046875zm4.5840454 9.0l0 -7.28125l1.953125 0l0 7.28125l-1.953125 0zm0.96875 -8.21875q-0.4375 0 -0.75 -0.296875q-0.3125 -0.296875 -0.3125 -0.71875q0 -0.40625 0.3125 -0.703125q0.3125 -0.296875 0.75 -0.296875q0.453125 0 0.765625 0.296875q0.3125 0.28125 0.3125 0.703125q0 0.421875 -0.3125 0.71875q-0.3125 0.296875 -0.765625 0.296875zm5.9087524 8.359375q-1.09375 0 -1.90625 -0.46875q-0.796875 -0.46875 -1.234375 -1.3125q-0.421875 -0.84375 -0.421875 -1.96875q0 -1.125 0.421875 -1.96875q0.4375 -0.84375 1.234375 -1.3125q0.8125 -0.46875 1.90625 -0.46875q1.09375 0 1.890625 0.46875q0.796875 0.46875 1.21875 1.3125q0.4375 0.84375 0.4375 1.96875q0 1.125 -0.4375 1.96875q-0.421875 0.84375 -1.21875 1.3125q-0.796875 0.46875 -1.890625 0.46875zm0 -1.53125q0.515625 0 0.859375 -0.28125q0.359375 -0.296875 0.53125 -0.796875q0.171875 -0.515625 0.171875 -1.140625q0 -0.640625 -0.171875 -1.140625q-0.171875 -0.515625 -0.53125 -0.796875q-0.34375 -0.28125 -0.859375 -0.28125q-0.53125 0 -0.875 0.28125q-0.34375 0.28125 -0.53125 0.796875q-0.171875 0.5 -0.171875 1.140625q0 0.625 0.171875 1.140625q0.1875 0.5 0.53125 0.796875q0.34375 0.28125 0.875 0.28125zm6.861389 -2.8125l0 4.203125l-1.953125 0l0 -7.28125l1.84375 0l0.03125 1.828125l-0.109375 0q0.28125 -0.921875 0.859375 -1.40625q0.59375 -0.5 1.515625 -0.5q0.75 0 1.3125 0.328125q0.5625 0.328125 0.875 0.9375q0.3125 0.609375 0.3125 1.46875l0 4.625l-1.953125 0l0 -4.28125q0 -0.6875 -0.359375 -1.0625q-0.34375 -0.390625 -0.953125 -0.390625q-0.421875 0 -0.75 0.1875q-0.3125 0.171875 -0.5 0.515625q-0.171875 0.328125 -0.171875 0.828125z" fill-rule="nonzero"/></g></svg>